<?xml version="1.0" encoding="UTF-8"?>
<svg width="308px" height="308px" viewBox="0 0 308 308" version="1.1" xmlns="http://www.w3.org/2000/svg" xmlns:xlink="http://www.w3.org/1999/xlink">
    <!-- Generator: Sketch 43.2 (39069) - http://www.bohemiancoding.com/sketch -->
    <title>Combined Shape</title>
    <desc>Created with Sketch.</desc>
    <defs>
        <linearGradient x1="0%" y1="100%" x2="312.139767%" y2="0%" id="linearGradient-1">
            <stop stop-color="#85E2D4" offset="0%"></stop>
            <stop stop-color="#B5DC8F" offset="99.7170248%"></stop>
            <stop stop-color="#B5DC8F" offset="100%"></stop>
        </linearGradient>
        <path d="M0,10.0029514 C0,4.47847388 4.47365195,0 10.0029514,0 L289.997049,0 C295.521526,0 300,4.47365195 300,10.0029514 L300,289.997049 C300,295.521526 295.526348,300 289.997049,300 L10.0029514,300 C4.47847388,300 0,295.526348 0,289.997049 L0,10.0029514 Z M261.9375,199.973958 L232.195312,207.989583 C231.820311,208.083334 231.292972,208.130208 230.613281,208.130208 C229.93359,208.130208 229.406252,208.083334 229.03125,207.989583 L200.0625,199.973958 C198.749993,199.598956 197.57813,199.809892 196.546875,200.606771 C195.51562,201.40365 195,202.458327 195,203.770833 L195,258.473958 C195,259.598964 195.374996,260.641922 196.125,261.602865 C196.875004,262.563807 197.789057,263.208332 198.867188,263.536458 L227.835938,271.552083 C228.210939,271.645834 228.644529,271.727864 229.136719,271.798177 C229.628909,271.86849 230.13281,271.903646 230.648438,271.903646 C231.023439,271.903646 231.457029,271.880209 231.949219,271.833333 C232.441409,271.786458 232.921873,271.692709 233.390625,271.552083 L263.132812,263.466146 C264.210943,263.184894 265.124996,262.563807 265.875,261.602865 C266.625004,260.641922 267,259.598964 267,258.473958 L267,203.770833 C267,202.458327 266.48438,201.40365 265.453125,200.606771 C264.42187,199.809892 263.250007,199.598956 261.9375,199.973958 Z M228.75,267.122396 L199.992188,259.177083 C199.898437,259.130208 199.792969,259.036459 199.675781,258.895833 C199.558593,258.755208 199.5,258.614584 199.5,258.473958 L199.5,204.473958 L227.835938,212.348958 C227.976563,212.348958 228.128905,212.372396 228.292969,212.419271 C228.457032,212.466146 228.609374,212.489583 228.75,212.489583 L228.75,267.122396 Z M262.5,258.473958 C262.5,258.614584 262.429688,258.755208 262.289062,258.895833 C262.148437,259.036459 262.03125,259.130208 261.9375,259.177083 L233.25,266.911458 L233.25,212.348958 L233.390625,212.348958 L262.5,204.473958 L262.5,258.473958 Z M240.140625,225.567708 L240.457031,225.567708 C240.574219,225.567708 240.679687,225.544271 240.773438,225.497396 L256.523438,221.067708 C257.08594,220.880207 257.51953,220.51693 257.824219,219.977865 C258.128908,219.438799 258.210938,218.888024 258.070312,218.325521 C257.882812,217.716143 257.519534,217.259116 256.980469,216.954427 C256.441404,216.649738 255.867191,216.567708 255.257813,216.708333 L239.507813,221.138021 C238.94531,221.325522 238.51172,221.688799 238.207031,222.227865 C237.902342,222.76693 237.820312,223.341143 237.960938,223.950521 C238.101563,224.466148 238.38281,224.864582 238.804688,225.145833 C239.226565,225.427085 239.671873,225.567708 240.140625,225.567708 Z M240.140625,239.067708 L240.457031,239.067708 C240.574219,239.067708 240.679687,239.044271 240.773438,238.997396 L256.523438,234.567708 C257.08594,234.380207 257.51953,234.01693 257.824219,233.477865 C258.128908,232.938799 258.210938,232.388024 258.070312,231.825521 C257.882812,231.216143 257.519534,230.759116 256.980469,230.454427 C256.441404,230.149738 255.867191,230.067708 255.257813,230.208333 L239.507813,234.638021 C238.94531,234.825522 238.51172,235.188799 238.207031,235.727865 C237.902342,236.26693 237.820312,236.841143 237.960938,237.450521 C238.101563,237.966148 238.38281,238.364582 238.804688,238.645833 C239.226565,238.927085 239.671873,239.067708 240.140625,239.067708 Z M240.140625,252.567708 L240.457031,252.567708 C240.574219,252.567708 240.679687,252.544271 240.773438,252.497396 L256.523438,248.067708 C257.08594,247.880207 257.51953,247.51693 257.824219,246.977865 C258.128908,246.438799 258.210938,245.888024 258.070312,245.325521 C257.882812,244.716143 257.519534,244.259116 256.980469,243.954427 C256.441404,243.649738 255.867191,243.567708 255.257813,243.708333 L239.507813,248.138021 C238.94531,248.325522 238.51172,248.688799 238.207031,249.227865 C237.902342,249.76693 237.820312,250.341143 237.960938,250.950521 C238.101563,251.466148 238.38281,251.864582 238.804688,252.145833 C239.226565,252.427085 239.671873,252.567708 240.140625,252.567708 Z M222.773438,221.138021 L207.023438,216.708333 C206.414059,216.567708 205.839846,216.649738 205.300781,216.954427 C204.761716,217.259116 204.398438,217.716143 204.210938,218.325521 C204.070312,218.888024 204.152342,219.438799 204.457031,219.977865 C204.76172,220.51693 205.19531,220.880207 205.757813,221.067708 L221.507813,225.497396 C221.601563,225.544271 221.707031,225.567708 221.824219,225.567708 L222.140625,225.567708 C222.609377,225.567708 223.054685,225.427085 223.476563,225.145833 C223.89844,224.864582 224.179687,224.466148 224.320313,223.950521 C224.460938,223.341143 224.378908,222.76693 224.074219,222.227865 C223.76953,221.688799 223.33594,221.325522 222.773438,221.138021 Z M222.773438,234.638021 L207.023438,230.208333 C206.414059,230.067708 205.839846,230.149738 205.300781,230.454427 C204.761716,230.759116 204.398438,231.216143 204.210938,231.825521 C204.070312,232.388024 204.152342,232.938799 204.457031,233.477865 C204.76172,234.01693 205.19531,234.380207 205.757813,234.567708 L221.507813,238.997396 C221.601563,239.044271 221.707031,239.067708 221.824219,239.067708 L222.140625,239.067708 C222.609377,239.067708 223.054685,238.927085 223.476563,238.645833 C223.89844,238.364582 224.179687,237.966148 224.320313,237.450521 C224.460938,236.841143 224.378908,236.26693 224.074219,235.727865 C223.76953,235.188799 223.33594,234.825522 222.773438,234.638021 Z M222.773438,248.138021 L207.023438,243.708333 C206.414059,243.567708 205.839846,243.649738 205.300781,243.954427 C204.761716,244.259116 204.398438,244.716143 204.210938,245.325521 C204.070312,245.888024 204.152342,246.438799 204.457031,246.977865 C204.76172,247.51693 205.19531,247.880207 205.757813,248.067708 L221.507813,252.497396 C221.601563,252.544271 221.707031,252.567708 221.824219,252.567708 L222.140625,252.567708 C222.609377,252.567708 223.054685,252.427085 223.476563,252.145833 C223.89844,251.864582 224.179687,251.466148 224.320313,250.950521 C224.460938,250.341143 224.378908,249.76693 224.074219,249.227865 C223.76953,248.688799 223.33594,248.325522 222.773438,248.138021 Z" id="path-2"></path>
        <filter x="-2.3%" y="-1.7%" width="104.7%" height="104.7%" filterUnits="objectBoundingBox" id="filter-3">
            <feOffset dx="0" dy="2" in="SourceAlpha" result="shadowOffsetOuter1"></feOffset>
            <feGaussianBlur stdDeviation="2" in="shadowOffsetOuter1" result="shadowBlurOuter1"></feGaussianBlur>
            <feColorMatrix values="0 0 0 0 0   0 0 0 0 0   0 0 0 0 0  0 0 0 0.5 0" type="matrix" in="shadowBlurOuter1"></feColorMatrix>
        </filter>
    </defs>
    <g id="Front-Page" stroke="none" stroke-width="1" fill="none" fill-rule="evenodd">
        <g id="Drone" transform="translate(-246.000000, -510.000000)">
            <g id="Buttons" transform="translate(250.000000, 512.000000)">
                <g id="Learn">
                    <g id="Combined-Shape">
                        <use fill="black" fill-opacity="1" filter="url(#filter-3)" xlink:href="#path-2"></use>
                        <use fill="url(#linearGradient-1)" fill-rule="evenodd" xlink:href="#path-2"></use>
                    </g>
                </g>
            </g>
        </g>
    </g>
</svg>